<svg viewBox="0 0 32 32" fill="none" xmlns="http://www.w3.org/2000/svg">
    <path fill-rule="evenodd" clip-rule="evenodd"
        d="M16 31C24.2843 31 31 24.2843 31 16C31 7.71572 24.2843 1 16 1C7.71572 1 1 7.71572 1 16C1 24.2843 7.71572 31 16 31ZM16 28.9375C23.1452 28.9375 28.9375 23.1452 28.9375 16C28.9375 8.85482 23.1452 3.0625 16 3.0625C8.85482 3.0625 3.0625 8.85482 3.0625 16C3.0625 23.1452 8.85482 28.9375 16 28.9375ZM24.7144 11.5563L13.6731 23.0994L7.77124 17.1976L9.22965 15.7392L13.6403 20.1498L23.224 10.1306L24.7144 11.5563Z"
        fill="black" />
</svg>