<?xml version="1.0" encoding="UTF-8"?> <svg xmlns="http://www.w3.org/2000/svg" width="24" height="24" viewBox="0 0 24 24" fill="none"><g clip-path="url(#clip0_255_289)"><rect width="24" height="24" rx="7" fill="black"></rect><path d="M10.2 14.7002L14.871 12.0002L10.2 9.3002V14.7002ZM20.604 7.6532C20.721 8.0762 20.802 8.6432 20.856 9.3632C20.919 10.0832 20.946 10.7042 20.946 11.2442L21 12.0002C21 13.9712 20.856 15.4202 20.604 16.3472C20.379 17.1572 19.857 17.6792 19.047 17.9042C18.624 18.0212 17.85 18.1022 16.662 18.1562C15.492 18.2192 14.421 18.2462 13.431 18.2462L12 18.3002C8.229 18.3002 5.88 18.1562 4.953 17.9042C4.143 17.6792 3.621 17.1572 3.396 16.3472C3.279 15.9242 3.198 15.3572 3.144 14.6372C3.081 13.9172 3.054 13.2962 3.054 12.7562L3 12.0002C3 10.0292 3.144 8.5802 3.396 7.6532C3.621 6.8432 4.143 6.3212 4.953 6.0962C5.376 5.9792 6.15 5.8982 7.338 5.8442C8.508 5.7812 9.579 5.7542 10.569 5.7542L12 5.7002C15.771 5.7002 18.12 5.8442 19.047 6.0962C19.857 6.3212 20.379 6.8432 20.604 7.6532Z" fill="white"></path></g><defs><clipPath id="clip0_255_289"><rect width="24" height="24" fill="white"></rect></clipPath></defs></svg> 