<?xml version="1.0" encoding="UTF-8"?> <svg xmlns="http://www.w3.org/2000/svg" width="27" height="27" viewBox="0 0 27 27" fill="none"><g clip-path="url(#clip0_233_350)"><path d="M25.6614 9.58807L12.1192 23.1303C11.8028 23.4465 11.3737 23.6241 10.9264 23.6241C10.479 23.6241 10.05 23.4465 9.73353 23.1303L2.17986 15.5365C1.86396 15.2201 1.68652 14.7913 1.68652 14.3442C1.68652 13.8971 1.86396 13.4683 2.17986 13.1519L4.28924 11.0425C4.6055 10.7275 5.03365 10.5507 5.47998 10.5507C5.92631 10.5507 6.35446 10.7275 6.67072 11.0425L10.9686 15.2106L21.1737 5.13096C21.49 4.8157 21.9184 4.63867 22.365 4.63867C22.8116 4.63867 23.24 4.8157 23.5563 5.13096L25.6604 7.19182C25.8186 7.34862 25.9442 7.53521 26.03 7.74081C26.1158 7.94641 26.16 8.16695 26.1601 8.38972C26.1602 8.61249 26.1161 8.83308 26.0306 9.03875C25.945 9.24443 25.8195 9.43112 25.6614 9.58807Z" fill="#036CFF"></path></g><defs><clipPath id="clip0_233_350"><rect width="27" height="27" fill="white"></rect></clipPath></defs></svg> 