<?xml version="1.0" encoding="UTF-8"?> <svg xmlns="http://www.w3.org/2000/svg" width="24" height="24" viewBox="0 0 24 24" fill="none"><g clip-path="url(#clip0_255_272)"><rect width="24" height="24" rx="7" fill="black"></rect><path d="M16.9316 7.23633C17.0279 7.2364 17.2556 7.26006 17.3994 7.37988C17.5194 7.47588 17.5554 7.60812 17.5674 7.7041C17.5554 7.77617 17.5794 7.99221 17.5674 8.16016C17.3874 10.0562 16.6069 14.6641 16.2109 16.7881C16.043 17.6878 15.7074 17.9883 15.3955 18.0244C14.6995 18.0844 14.171 17.568 13.499 17.124C12.4431 16.4281 11.8431 15.9961 10.8232 15.3242C9.63533 14.5443 10.403 14.1119 11.0869 13.416C11.2668 13.2361 14.3362 10.443 14.3994 10.1885C14.4077 10.1503 14.406 10.1099 14.3955 10.0723C14.385 10.0348 14.3656 9.99998 14.3389 9.97168C14.2669 9.91207 14.1708 9.93626 14.0869 9.94824C13.9757 9.9745 12.2959 11.0903 9.02344 13.2959C8.54357 13.6198 8.11146 13.7883 7.72754 13.7764C7.29554 13.7644 6.47919 13.536 5.86719 13.332C5.11122 13.092 4.52332 12.96 4.57129 12.54C4.59529 12.3241 4.89509 12.1079 5.45898 11.8799C8.9628 10.356 11.291 9.34819 12.4551 8.86816C15.7911 7.47616 16.4756 7.23633 16.9316 7.23633Z" fill="white"></path></g><defs><clipPath id="clip0_255_272"><rect width="24" height="24" fill="white"></rect></clipPath></defs></svg> 