<?xml version="1.0" encoding="UTF-8"?> <svg xmlns="http://www.w3.org/2000/svg" viewBox="0 0 100 100" fill-rule="evenodd"><path d="m88.668 81.766c-0.35938 0.49219-0.76172 1.0742-1.1211 1.6602-0.85156 1.3008-1.793 2.6875-2.6445 2.7344-0.49219 0-1.8828-0.49219-4.3477-4.9297-4.2148-7.4844-10.039-14.164-15.645-20.664-5.9609-6.8594-12.102-13.941-16.629-22.188l6.0078-4.0781c7.7109 14.434 17.215 29.09 33.531 39.492 1.4336 0.89844 1.9258 2.2422 2.1055 3.1836 0.26562 1.6094-0.17969 3.4453-1.2578 4.7891zm-75.574-52.715c-1.0312-0.26562-2.0625-0.58203-3.0938-0.94141 2.7773 14.746 10.668 26.18 23.398 34.113 0.042968-1.0742 0.089843-2.1523 0.22266-3.1836-10.488-7.4414-17.391-17.527-20.527-29.988zm21.785 0.31641c-0.17969-0.26953-0.26953-0.53906-0.35938-0.80859-6.4531 1.9727-12.641 2.332-18.918 1.0742 3.0039 11.027 9.1875 20.035 18.332 26.852 1.1211-6.2773 3.6758-11.879 7.8438-17.215-0.22266-0.17969-0.44922-0.35938-0.58203-0.58203zm2.9141-6.5 5.4258-3.6758-3.3633-4.8867c-0.17969-0.22266-0.40234-0.40234-0.62891-0.44922-0.26953-0.042969-0.53906 0-0.76172 0.17969l-3.7188 2.5547c-0.26953 0.13281-0.40234 0.40234-0.44922 0.67188-0.042969 0.22266 0 0.49219 0.13281 0.71875zm16.586 8.6055c0.35938-0.17969 0.58203-0.53906 0.62891-0.94141 0.089844-0.35938 0-0.76172-0.22266-1.0742l-6.3203-9.3242c-0.26953-0.40234-0.76172-0.62891-1.2109-0.62891-0.26953 0-0.58203 0.042969-0.85156 0.22266l-8.2461 5.6484h-0.042969l-0.98438 0.67188c-0.35938 0.22266-0.53906 0.58203-0.62891 0.94141-0.089844 0.40234 0 0.80859 0.22266 1.1211l6.3203 9.3242c0.44922 0.67188 1.3906 0.85156 2.0625 0.35938l1.0742-0.71875 7.8906-5.3359z" stroke-width="0.5" stroke="black"></path></svg> 